<svg width="16" height="16" viewBox="0 0 16 16" fill="none" xmlns="http://www.w3.org/2000/svg">
<path d="M14 1C14.5523 1 15 1.44772 15 2V14C15 14.5523 14.5523 15 14 15H2C1.44772 15 1 14.5523 1 14V2C1 1.44772 1.44772 1 2 1H14ZM2 0C0.895431 0 0 0.895431 0 2V14C0 15.1046 0.895431 16 2 16H14C15.1046 16 16 15.1046 16 14V2C16 0.895431 15.1046 0 14 0H2Z" fill="black"/>
<path d="M11.3536 4.64645C11.5488 4.84171 11.5488 5.15829 11.3536 5.35355L5.35355 11.3536C5.15829 11.5488 4.84171 11.5488 4.64645 11.3536C4.45118 11.1583 4.45118 10.8417 4.64645 10.6464L10.6464 4.64645C10.8417 4.45118 11.1583 4.45118 11.3536 4.64645Z" fill="black"/>
</svg>
